<?xml version="1.0" encoding="UTF-8" standalone="no"?>
<!-- Created with Inkscape (http://www.inkscape.org/) -->

<svg
   xmlns:dc="http://purl.org/dc/elements/1.1/"
   xmlns:cc="http://creativecommons.org/ns#"
   xmlns:rdf="http://www.w3.org/1999/02/22-rdf-syntax-ns#"
   xmlns:svg="http://www.w3.org/2000/svg"
   xmlns="http://www.w3.org/2000/svg"
   xmlns:sodipodi="http://sodipodi.sourceforge.net/DTD/sodipodi-0.dtd"
   xmlns:inkscape="http://www.inkscape.org/namespaces/inkscape"
   width="744.09448819"
   height="1052.3622047"
   id="svg2"
   version="1.1"
   inkscape:version="0.48.4 r9939"
   sodipodi:docname="bacteria_sensing.svg"
   inkscape:export-filename="/home/max/Downloads/Projects/cellCircuit/cellCircuit/bacteria_sensing.png"
   inkscape:export-xdpi="300"
   inkscape:export-ydpi="300">
  <defs
     id="defs4">
    <marker
       inkscape:stockid="DotM"
       orient="auto"
       refY="0.0"
       refX="0.0"
       id="DotM"
       style="overflow:visible">
      <path
         id="path3847"
         d="M -2.5,-1.0 C -2.5,1.7600000 -4.7400000,4.0 -7.5,4.0 C -10.260000,4.0 -12.5,1.7600000 -12.5,-1.0 C -12.5,-3.7600000 -10.260000,-6.0 -7.5,-6.0 C -4.7400000,-6.0 -2.5,-3.7600000 -2.5,-1.0 z "
         style="fill-rule:evenodd;stroke:#000000;stroke-width:1.0pt"
         transform="scale(0.4) translate(7.4, 1)" />
    </marker>
    <marker
       inkscape:stockid="Arrow2Mend"
       orient="auto"
       refY="0.0"
       refX="0.0"
       id="Arrow2Mend"
       style="overflow:visible;">
      <path
         id="path3810"
         style="fill-rule:evenodd;stroke-width:0.62500000;stroke-linejoin:round;"
         d="M 8.7185878,4.0337352 L -2.2072895,0.016013256 L 8.7185884,-4.0017078 C 6.9730900,-1.6296469 6.9831476,1.6157441 8.7185878,4.0337352 z "
         transform="scale(0.6) rotate(180) translate(0,0)" />
    </marker>
    <marker
       inkscape:stockid="Arrow2Send"
       orient="auto"
       refY="0.0"
       refX="0.0"
       id="Arrow2Send"
       style="overflow:visible;">
      <path
         id="path3816"
         style="fill-rule:evenodd;stroke-width:0.62500000;stroke-linejoin:round;"
         d="M 8.7185878,4.0337352 L -2.2072895,0.016013256 L 8.7185884,-4.0017078 C 6.9730900,-1.6296469 6.9831476,1.6157441 8.7185878,4.0337352 z "
         transform="scale(0.3) rotate(180) translate(-2.3,0)" />
    </marker>
    <marker
       inkscape:stockid="Arrow1Lend"
       orient="auto"
       refY="0.0"
       refX="0.0"
       id="Arrow1Lend"
       style="overflow:visible;">
      <path
         id="path3786"
         d="M 0.0,0.0 L 5.0,-5.0 L -12.5,0.0 L 5.0,5.0 L 0.0,0.0 z "
         style="fill-rule:evenodd;stroke:#000000;stroke-width:1.0pt;"
         transform="scale(0.8) rotate(180) translate(12.5,0)" />
    </marker>
    <marker
       inkscape:stockid="Arrow1Mstart"
       orient="auto"
       refY="0.0"
       refX="0.0"
       id="Arrow1Mstart"
       style="overflow:visible">
      <path
         id="path3789"
         d="M 0.0,0.0 L 5.0,-5.0 L -12.5,0.0 L 5.0,5.0 L 0.0,0.0 z "
         style="fill-rule:evenodd;stroke:#000000;stroke-width:1.0pt"
         transform="scale(0.4) translate(10,0)" />
    </marker>
    <marker
       inkscape:stockid="Arrow1Lstart"
       orient="auto"
       refY="0.0"
       refX="0.0"
       id="Arrow1Lstart"
       style="overflow:visible">
      <path
         id="path3783"
         d="M 0.0,0.0 L 5.0,-5.0 L -12.5,0.0 L 5.0,5.0 L 0.0,0.0 z "
         style="fill-rule:evenodd;stroke:#000000;stroke-width:1.0pt"
         transform="scale(0.8) translate(12.5,0)" />
    </marker>
    <marker
       inkscape:stockid="DotS"
       orient="auto"
       refY="0.0"
       refX="0.0"
       id="DotS"
       style="overflow:visible">
      <path
         id="path3850"
         d="M -2.5,-1.0 C -2.5,1.7600000 -4.7400000,4.0 -7.5,4.0 C -10.260000,4.0 -12.5,1.7600000 -12.5,-1.0 C -12.5,-3.7600000 -10.260000,-6.0 -7.5,-6.0 C -4.7400000,-6.0 -2.5,-3.7600000 -2.5,-1.0 z "
         style="fill-rule:evenodd;stroke:#000000;stroke-width:1.0pt"
         transform="scale(0.2) translate(7.4, 1)" />
    </marker>
    <marker
       inkscape:stockid="DotL"
       orient="auto"
       refY="0.0"
       refX="0.0"
       id="DotL"
       style="overflow:visible">
      <path
         id="path3844"
         d="M -2.5,-1.0 C -2.5,1.7600000 -4.7400000,4.0 -7.5,4.0 C -10.260000,4.0 -12.5,1.7600000 -12.5,-1.0 C -12.5,-3.7600000 -10.260000,-6.0 -7.5,-6.0 C -4.7400000,-6.0 -2.5,-3.7600000 -2.5,-1.0 z "
         style="fill-rule:evenodd;stroke:#000000;stroke-width:1.0pt"
         transform="scale(0.8) translate(7.4, 1)" />
    </marker>
  </defs>
  <sodipodi:namedview
     id="base"
     pagecolor="#ffffff"
     bordercolor="#666666"
     borderopacity="1.0"
     inkscape:pageopacity="0.0"
     inkscape:pageshadow="2"
     inkscape:zoom="0.82477147"
     inkscape:cx="334.34234"
     inkscape:cy="682.65855"
     inkscape:document-units="px"
     inkscape:current-layer="layer2"
     showgrid="false"
     inkscape:window-width="1331"
     inkscape:window-height="744"
     inkscape:window-x="35"
     inkscape:window-y="24"
     inkscape:window-maximized="1" />
  <metadata
     id="metadata7">
    <rdf:RDF>
      <cc:Work
         rdf:about="">
        <dc:format>image/svg+xml</dc:format>
        <dc:type
           rdf:resource="http://purl.org/dc/dcmitype/StillImage" />
        <dc:title />
      </cc:Work>
    </rdf:RDF>
  </metadata>
  <g
     inkscape:groupmode="layer"
     id="layer4"
     inkscape:label="Layer 0"
     style="display:none"
     sodipodi:insensitive="true">
    <rect
       style="fill:#5d5d5d;fill-opacity:1;stroke:none"
       id="rect3031"
       width="745.66113"
       height="623.20294"
       x="-3.7528721e-06"
       y="-3.6879241"
       ry="0" />
  </g>
  <g
     inkscape:label="Layer 1"
     inkscape:groupmode="layer"
     id="layer1"
     sodipodi:insensitive="true">
    <rect
       style="fill:#a7b5ee;fill-opacity:1;stroke:#afafaf;stroke-width:3;stroke-linecap:round;stroke-linejoin:miter;stroke-miterlimit:4;stroke-opacity:1;stroke-dasharray:none;stroke-dashoffset:0"
       id="rect2985"
       width="496.70679"
       height="314.14221"
       x="188.90451"
       y="88.915916"
       ry="44.480316"
       transform="matrix(0.96592583,0.25881905,-0.25881905,0.96592583,0,0)" />
  </g>
  <g
     inkscape:groupmode="layer"
     id="layer2"
     inkscape:label="Layer 2"
     sodipodi:insensitive="true">
    <rect
       transform="matrix(0.96592583,0.25881905,-0.25881905,0.96592583,0,0)"
       ry="11.647277"
       y="-77.340691"
       x="573.99933"
       height="82.258888"
       width="130.06386"
       id="rect3755"
       style="fill:#a7b5ee;fill-opacity:1;stroke:#afafaf;stroke-width:3;stroke-linecap:round;stroke-linejoin:miter;stroke-miterlimit:4;stroke-opacity:1;stroke-dasharray:none;stroke-dashoffset:0" />
    <path
       sodipodi:type="arc"
       style="fill:none;stroke:#4d4d4d;stroke-width:5;stroke-linecap:round;stroke-linejoin:miter;stroke-miterlimit:4;stroke-opacity:1;stroke-dasharray:5, 5;stroke-dashoffset:18.5;marker-mid:none"
       id="path3777"
       sodipodi:cx="521.74945"
       sodipodi:cy="158.64386"
       sodipodi:rx="22.756716"
       sodipodi:ry="22.756716"
       d="m 544.50617,158.64386 a 22.756716,22.756716 0 1 1 -45.51344,0 22.756716,22.756716 0 1 1 45.51344,0 z"
       transform="translate(103.1933,-29.06203)" />
    <path
       transform="matrix(1.3427769,0,0,1.3427769,-76.52583,-83.44148)"
       d="m 544.50617,158.64386 a 22.756716,22.756716 0 1 1 -0.10448,-2.1781"
       sodipodi:ry="22.756716"
       sodipodi:rx="22.756716"
       sodipodi:cy="158.64386"
       sodipodi:cx="521.74945"
       id="path4593"
       style="fill:none;stroke:#000000;stroke-width:1;stroke-linecap:round;stroke-linejoin:miter;stroke-miterlimit:4;stroke-opacity:1;stroke-dasharray:none;stroke-dashoffset:18.5;marker-mid:none;marker-end:url(#Arrow2Mend)"
       sodipodi:type="arc"
       sodipodi:start="0"
       sodipodi:end="6.1873262"
       sodipodi:open="true" />
    <text
       xml:space="preserve"
       style="font-size:40px;font-style:normal;font-weight:normal;line-height:125%;letter-spacing:0px;word-spacing:0px;fill:#000000;fill-opacity:1;stroke:none;font-family:Sans"
       x="368.04752"
       y="254.76598"
       id="text6132"
       sodipodi:linespacing="125%"
       transform="matrix(0.96592583,0.25881905,-0.25881905,0.96592583,0,0)"><tspan
         sodipodi:role="line"
         id="tspan6134"
         x="368.04752"
         y="254.76598"
         style="font-size:48px;fill:#4d4d4d;fill-opacity:1">Neuron</tspan></text>
    <text
       transform="matrix(0.96592583,0.25881905,-0.25881905,0.96592583,0,0)"
       sodipodi:linespacing="125%"
       id="text6136"
       y="-89.784851"
       x="575.95544"
       style="font-size:40px;font-style:normal;font-weight:normal;line-height:125%;letter-spacing:0px;word-spacing:0px;fill:#bfbfbf;fill-opacity:1;stroke:none;font-family:Sans"
       xml:space="preserve"><tspan
         style="font-size:32px;fill:#bfbfbf;fill-opacity:1"
         y="-89.784851"
         x="575.95544"
         id="tspan6138"
         sodipodi:role="line">bacteria</tspan></text>
    <text
       xml:space="preserve"
       style="font-size:40px;font-style:normal;font-weight:normal;line-height:125%;letter-spacing:0px;word-spacing:0px;fill:#bfbfbf;fill-opacity:1;stroke:none;font-family:Sans"
       x="555.79211"
       y="46.355286"
       id="text6140"
       sodipodi:linespacing="125%"
       transform="matrix(0.96592583,0.25881905,-0.25881905,0.96592583,0,0)"><tspan
         sodipodi:role="line"
         id="tspan6142"
         x="555.79211"
         y="46.355286"
         style="font-size:32px;fill:#bfbfbf;fill-opacity:1">peel</tspan></text>
    <a
       id="a6148"
       transform="translate(8,-8)"
       style="fill:#bfbfbf;fill-opacity:1">
      <text
         xml:space="preserve"
         style="font-size:40px;font-style:normal;font-weight:normal;line-height:125%;letter-spacing:0px;word-spacing:0px;fill:#bfbfbf;fill-opacity:1;stroke:none;font-family:Sans"
         x="282.0737"
         y="3.4544177"
         id="text6144"
         sodipodi:linespacing="125%"
         transform="matrix(0.96592583,0.25881905,-0.25881905,0.96592583,0,0)"><tspan
           sodipodi:role="line"
           id="tspan6146"
           x="282.0737"
           y="3.4544177"
           style="font-size:32px;fill:#bfbfbf;fill-opacity:1">electrical current</tspan></text>
    </a>
    <a
       id="a6152"
       transform="translate(25,-40)"
       style="fill:#bfbfbf;fill-opacity:1">
      <text
         transform="matrix(0.96592583,0.25881905,-0.25881905,0.96592583,0,0)"
         sodipodi:linespacing="125%"
         id="text6154"
         y="4.3174729"
         x="475.90161"
         style="font-size:40px;font-style:normal;font-weight:normal;line-height:125%;letter-spacing:0px;word-spacing:0px;fill:#bfbfbf;fill-opacity:1;stroke:none;font-family:Sans"
         xml:space="preserve"><tspan
           style="font-size:32px;fill:#bfbfbf;fill-opacity:1"
           y="4.3174729"
           x="475.90161"
           id="tspan6156"
           sodipodi:role="line">DNA</tspan></text>
    </a>
    <path
       style="fill:#a7b5ee;fill-opacity:1;stroke:#a7b5ee;stroke-width:5;stroke-linecap:butt;stroke-linejoin:miter;stroke-miterlimit:4;stroke-opacity:1;stroke-dasharray:none"
       d="m 581,274.36218 32,-111"
       id="path6158"
       inkscape:connector-curvature="0" />
    <path
       style="fill:none;stroke:#000000;stroke-width:1px;stroke-linecap:butt;stroke-linejoin:miter;stroke-opacity:1;marker-end:url(#DotL)"
       d="m 555,97.362183 57.21264,13.393587"
       id="path6162"
       inkscape:connector-curvature="0"
       sodipodi:nodetypes="cc" />
    <path
       style="fill:none;stroke:#000000;stroke-width:1px;stroke-linecap:butt;stroke-linejoin:miter;stroke-opacity:1;marker-end:url(#DotL)"
       d="m 546,131.36218 52.43514,12.72803"
       id="path6164"
       inkscape:connector-curvature="0"
       sodipodi:nodetypes="cc" />
    <text
       transform="matrix(0.96592583,0.25881905,-0.25881905,0.96592583,0,0)"
       sodipodi:linespacing="125%"
       id="text3963"
       y="129.17531"
       x="539.23297"
       style="font-size:40px;font-style:normal;font-weight:normal;line-height:125%;letter-spacing:0px;word-spacing:0px;fill:#a85757;fill-opacity:1;stroke:none;font-family:Sans"
       xml:space="preserve"><tspan
         style="font-size:32px;fill:#a85757;fill-opacity:1;stroke:none"
         y="129.17531"
         x="539.23297"
         id="tspan3965"
         sodipodi:role="line">spike</tspan></text>
  </g>
  <g
     inkscape:groupmode="layer"
     id="layer3"
     inkscape:label="Layer3"
     sodipodi:insensitive="true">
    <path
       inkscape:connector-curvature="0"
       sodipodi:nodetypes="ccsssssc"
       id="path2231"
       d="m 522.60703,232.3958 16.97762,4.54914 c 0.81972,-1.31424 1.69234,-2.70081 2.57033,-4.09645 3.03616,-4.82628 6.13654,-9.76124 7.33576,-12.19037 8.98373,-18.19732 10.01034,-16.69102 6.17464,2.10128 -1.8517,9.07208 -2.21219,19.93038 -1.00171,24.3452 1.89527,6.91237 3.26569,9.46086 9.69998,3.70703 5.88939,-5.26655 7.50139,-5.13109 13.49512,-3.61117"
       style="font-size:16px;fill:none;stroke:#ff0000;stroke-width:2;stroke-linecap:butt;stroke-linejoin:miter;stroke-miterlimit:4;stroke-opacity:1;stroke-dasharray:none;font-family:Verdana" />
  </g>
</svg>
